<svg xmlns="http://www.w3.org/2000/svg" viewBox="8 12 752 212" width="752" height="212" role="img" aria-label="vstimd">
  <title>vstimd</title>
  <!-- Dark-background variant (white stim, light-blue d for UB-blue header). Text is outlined (Liberation Sans Bold / Bold Italic) so it
       renders identically without the font installed. -->
  <!-- V: three-bar chevron grating; skewed to mirror the italic d, dropped
       below the baseline and enlarged so the bars read at small sizes. -->
  <g transform="translate(20,24.5) scale(1.25) skewX(12)" fill="#c60c2b">
    <polygon points="0,0 75,150 150,0 137,0 75,124 13,0"/>
    <polygon points="29,0 75,92 121,0 108,0 75,66 42,0"/>
    <polygon points="58,0 75,34 92,0 79,0 75,8 71,0"/>
  </g>
  <g>
    <path fill="#ffffff" d="M285.60302734375 143.369140625Q285.60302734375 159.08447265625 272.740478515625 168.043212890625Q259.8779296875 177.001953125 237.15576171875 177.001953125Q214.833984375 177.001953125 202.972412109375 169.945068359375Q191.11083984375 162.88818359375 187.20703125 147.9736328125L211.93115234375 144.27001953125Q214.033203125 151.9775390625 219.188232421875 155.1806640625Q224.34326171875 158.3837890625 237.15576171875 158.3837890625Q248.96728515625 158.3837890625 254.37255859375 155.380859375Q259.77783203125 152.3779296875 259.77783203125 145.9716796875Q259.77783203125 140.7666015625 255.423583984375 137.713623046875Q251.0693359375 134.66064453125 240.6591796875 132.55859375Q216.8359375 127.85400390625 208.52783203125 123.800048828125Q200.2197265625 119.74609375 195.865478515625 113.289794921875Q191.51123046875 106.83349609375 191.51123046875 97.42431640625Q191.51123046875 81.9091796875 203.472900390625 73.250732421875Q215.4345703125 64.59228515625 237.35595703125 64.59228515625Q256.6748046875 64.59228515625 268.436279296875 72.099609375Q280.19775390625 79.60693359375 283.1005859375 93.82080078125L258.17626953125 96.42333984375Q256.97509765625 89.81689453125 252.2705078125 86.563720703125Q247.56591796875 83.310546875 237.35595703125 83.310546875Q227.34619140625 83.310546875 222.34130859375 85.863037109375Q217.33642578125 88.41552734375 217.33642578125 94.42138671875Q217.33642578125 99.1259765625 221.190185546875 101.878662109375Q225.0439453125 104.63134765625 234.15283203125 106.43310546875Q246.865234375 109.03564453125 256.724853515625 111.788330078125Q266.58447265625 114.541015625 272.540283203125 118.3447265625Q278.49609375 122.1484375 282.049560546875 128.104248046875Q285.60302734375 134.06005859375 285.60302734375 143.369140625Z"/>
    <path fill="#ffffff" d="M332.05224609375 176.8017578125Q319.64013671875 176.8017578125 312.93359375 170.045166015625Q306.22705078125 163.28857421875 306.22705078125 149.5751953125V85.712890625H292.513671875V66.6943359375H307.62841796875L316.43701171875 41.26953125H334.05419921875V66.6943359375H354.57421875V85.712890625H334.05419921875V141.9677734375Q334.05419921875 149.87548828125 337.05712890625 153.629150390625Q340.06005859375 157.3828125 346.3662109375 157.3828125Q349.66943359375 157.3828125 355.775390625 155.9814453125V173.3984375Q345.365234375 176.8017578125 332.05224609375 176.8017578125Z"/>
    <path fill="#ffffff" d="M368.591796875 47.17529296875V26.455078125H396.71923828125V47.17529296875ZM368.591796875 175.0V66.6943359375H396.71923828125V175.0Z"/>
    <path fill="#ffffff" d="M485.3095703125 175.0V114.24072265625Q485.3095703125 85.712890625 468.8935546875 85.712890625Q460.38525390625 85.712890625 455.030029296875 94.42138671875Q449.6748046875 103.1298828125 449.6748046875 116.943359375V175.0H421.54736328125V90.91796875Q421.54736328125 82.20947265625 421.297119140625 76.654052734375Q421.046875 71.0986328125 420.74658203125 66.6943359375H447.57275390625Q447.873046875 68.59619140625 448.37353515625 76.854248046875Q448.8740234375 85.1123046875 448.8740234375 88.21533203125H449.2744140625Q454.4794921875 75.80322265625 462.237060546875 70.19775390625Q469.99462890625 64.59228515625 480.80517578125 64.59228515625Q505.62939453125 64.59228515625 510.9345703125 88.21533203125H511.53515625Q517.04052734375 75.60302734375 524.748046875 70.09765625Q532.45556640625 64.59228515625 544.3671875 64.59228515625Q560.1826171875 64.59228515625 568.49072265625 75.352783203125Q576.798828125 86.11328125 576.798828125 106.23291015625V175.0H548.87158203125V114.24072265625Q548.87158203125 85.712890625 532.45556640625 85.712890625Q524.24755859375 85.712890625 518.992431640625 93.670654296875Q513.7373046875 101.62841796875 513.23681640625 115.64208984375V175.0Z"/>
    <path fill="#5b8fd0" d="M660.484375 158.984375Q653.37744140625 168.29345703125 645.119384765625 172.69775390625Q636.861328125 177.10205078125 624.74951171875 177.10205078125Q609.33447265625 177.10205078125 600.32568359375 166.89208984375Q591.31689453125 156.68212890625 591.31689453125 139.5654296875Q591.31689453125 120.44677734375 597.72314453125 102.12890625Q604.12939453125 83.81103515625 615.690673828125 74.251708984375Q627.251953125 64.6923828125 643.56787109375 64.6923828125Q669.19287109375 64.6923828125 674.99853515625 84.51171875H675.4990234375Q675.69921875 82.509765625 676.2998046875 78.505859375Q676.900390625 74.501953125 678.1015625 68.2958984375L686.509765625 26.455078125H714.23681640625L690.41357421875 151.87744140625Q688.41162109375 163.08837890625 687.5107421875 175.0H659.38330078125Q659.38330078125 168.69384765625 660.884765625 158.984375ZM637.0615234375 157.783203125Q645.16943359375 157.783203125 650.97509765625 154.329833984375Q656.78076171875 150.87646484375 660.884765625 143.719482421875Q664.98876953125 136.5625 667.39111328125 125.751953125Q669.79345703125 114.94140625 669.79345703125 106.83349609375Q669.79345703125 94.82177734375 665.0888671875 89.366455078125Q660.38427734375 83.9111328125 650.97509765625 83.9111328125Q640.76513671875 83.9111328125 634.308837890625 90.81787109375Q627.8525390625 97.724609375 624.44921875 111.03759765625Q621.0458984375 124.3505859375 621.0458984375 135.66162109375Q621.0458984375 157.783203125 637.0615234375 157.783203125Z"/>
  </g>
</svg>
